<?xml version="1.0" encoding="UTF-8"?><svg id="Layer_1" xmlns="http://www.w3.org/2000/svg" viewBox="0 0 143 58"><defs><style>.cls-1{fill:#ff716a;}.cls-2{fill:#4553d5;}</style></defs><path class="cls-1" d="M15.1,1.02C7.42,1.02,1.17,7.26,1.17,14.94c0,3.97,1.98,8.29,5.88,12.83,1.13,1.32,2.38,2.61,3.73,3.85,.51,.47,2.06,1.76,2.24,1.91l.52,.43h3.11l.52-.43c.18-.15,1.73-1.44,2.24-1.91,1.35-1.24,2.6-2.53,3.73-3.85,3.9-4.55,5.88-8.86,5.88-12.83,0-7.68-6.25-13.92-13.92-13.92Zm0,24.02c-5.58,0-10.1-4.52-10.1-10.1S9.52,4.84,15.1,4.84s10.1,4.52,10.1,10.1-4.52,10.1-10.1,10.1Z"/><circle class="cls-2" cx="14.94" cy="9.16" r="1.7"/><circle class="cls-2" cx="14.94" cy="14.94" r="1.35"/><circle class="cls-2" cx="20.72" cy="14.94" r="1.7"/><circle class="cls-2" cx="9.16" cy="14.94" r="1"/><circle class="cls-2" cx="14.94" cy="20.72" r="1"/><path class="cls-2" d="M40.11,27.79c-1.72,0-3.14-.3-4.26-.9-1.12-.62-1.96-1.42-2.52-2.4-.56-1-.87-2.04-.93-3.14h3.3c.06,.62,.26,1.23,.59,1.84,.33,.58,.82,1.06,1.46,1.43,.64,.37,1.46,.56,2.46,.56,1.1,0,1.95-.23,2.55-.68,.6-.48,.9-1.1,.9-1.87,0-.66-.24-1.22-.72-1.68-.46-.48-1.17-.89-2.15-1.24l-2.21-.78c-1-.37-1.9-.78-2.71-1.21-.79-.46-1.42-1.02-1.9-1.68-.48-.68-.72-1.55-.72-2.58,0-1.6,.57-2.87,1.71-3.83s2.71-1.43,4.7-1.43c1.43,0,2.61,.25,3.55,.75,.95,.5,1.68,1.18,2.18,2.05,.5,.85,.79,1.82,.87,2.89h-3.17c-.08-.79-.39-1.49-.93-2.12-.54-.64-1.42-.96-2.65-.96-.98,0-1.72,.22-2.24,.65-.52,.41-.78,.99-.78,1.71s.25,1.29,.75,1.74c.5,.46,1.24,.87,2.24,1.24l2.21,.75c1,.37,1.89,.79,2.68,1.24,.79,.44,1.4,.99,1.84,1.65,.46,.66,.68,1.51,.68,2.55,0,1.6-.58,2.9-1.74,3.92-1.16,1.02-2.84,1.52-5.04,1.52Z"/><path class="cls-2" d="M65.73,17.89c0-3.15-.67-5.56-2.02-7.22-1.33-1.66-3.27-2.49-5.82-2.49-1.83,0-3.36,.41-4.61,1.24-1.22,.83-2.16,1.98-2.8,3.45-.62,1.45-.93,3.15-.93,5.1,0,2.95,.71,5.32,2.12,7.13,1.43,1.78,3.52,2.68,6.25,2.68,1.49,0,2.76-.27,3.8-.81,1.04-.56,1.87-1.32,2.49-2.27,.62-.97,1.07-2.1,1.34-3.36h-3.17c-.31,1.18-.83,2.11-1.56,2.77-.73,.66-1.68,1-2.86,1-1.64,0-2.88-.58-3.73-1.74-.83-1.18-1.3-2.69-1.4-4.51h12.91v-.96Zm-12.88-1.46c.19-1.76,.69-3.13,1.52-4.11,.85-.98,2.01-1.46,3.49-1.46,1.39,0,2.49,.48,3.3,1.43,.81,.95,1.24,2.33,1.31,4.14h-9.62Z"/><path class="cls-2" d="M73.18,27.32h-3.36V8.65h2.99v2.8h.75c.35-1.04,.96-1.84,1.84-2.4,.87-.58,1.98-.87,3.33-.87,2.18,0,3.75,.67,4.73,2.02,1,1.33,1.49,3.04,1.49,5.13v11.98h-3.36v-11.26c0-1.62-.29-2.85-.87-3.7-.58-.87-1.48-1.31-2.71-1.31-1.51,0-2.7,.6-3.55,1.8-.85,1.18-1.28,2.66-1.28,4.42v10.05Z"/><path class="cls-2" d="M103.06,27.32h-14.13v-3.17l7.84-9.9c.31-.39,.64-.8,1-1.21,.37-.41,.71-.76,1-1.03v-.75h-9.37v-2.61h13.19v3.17l-7.75,9.9c-.29,.39-.6,.77-.93,1.12-.31,.35-.66,.73-1.06,1.12v.75h10.21v2.61Z"/><path class="cls-2" d="M120.89,10.86c-1.37-1.78-3.48-2.68-6.32-2.68s-4.96,.89-6.35,2.68c-1.37,1.76-2.05,4.14-2.05,7.13s.68,5.37,2.05,7.16c1.39,1.76,3.51,2.65,6.35,2.65s4.95-.88,6.32-2.65c1.39-1.78,2.08-4.17,2.08-7.16s-.7-5.36-2.08-7.13Zm-2.55,12.29c-.79,1.27-2.04,1.9-3.77,1.9s-2.99-.63-3.8-1.9c-.79-1.27-1.18-2.99-1.18-5.17s.4-3.9,1.18-5.17c.81-1.27,2.08-1.9,3.8-1.9s2.98,.63,3.77,1.9c.81,1.27,1.21,2.99,1.21,5.17s-.4,3.9-1.21,5.17Z"/><path class="cls-2" d="M24.64,57.32h-5.29l-5.66-18.48v-.19h3.36l4.7,15.87h.75l4.7-15.87h3.11v.19l-5.66,18.48Zm21.46,0h-14.13v-3.17l7.84-9.9c.31-.39,.64-.8,1-1.21,.37-.41,.71-.76,1-1.03v-.75h-9.37v-2.61h13.19v3.17l-7.75,9.9c-.29,.39-.6,.77-.93,1.12-.31,.35-.66,.73-1.06,1.12v.75h10.21v2.61Zm9.98,.47c-1.6,0-2.96-.4-4.08-1.21-1.12-.81-1.98-1.94-2.58-3.39-.58-1.47-.87-3.2-.87-5.2s.29-3.71,.87-5.17c.6-1.47,1.45-2.61,2.55-3.42,1.12-.81,2.47-1.21,4.05-1.21,1.27,0,2.29,.25,3.08,.75,.81,.5,1.41,1.15,1.8,1.96h.75v-8.46h3.36v24.89h-2.99v-2.43h-.75c-.33,.75-.92,1.42-1.77,2.02-.85,.58-1.99,.87-3.42,.87Zm.59-2.8c1.56,0,2.79-.64,3.7-1.93,.91-1.29,1.37-2.98,1.37-5.07s-.46-3.79-1.37-5.07c-.91-1.29-2.15-1.93-3.7-1.93s-2.68,.61-3.49,1.84c-.81,1.22-1.21,2.95-1.21,5.17s.4,3.94,1.21,5.17c.81,1.22,1.97,1.84,3.49,1.84Zm19.35,2.8c-2.18,0-3.77-.67-4.76-2.02-.97-1.35-1.46-3.06-1.46-5.13v-11.98h3.36v11.26c0,1.62,.29,2.86,.87,3.73,.58,.85,1.48,1.28,2.71,1.28,1.54,0,2.72-.59,3.55-1.77,.85-1.2,1.28-2.69,1.28-4.45v-10.05h3.36v18.67h-2.99v-2.8h-.75c-.33,1.04-.94,1.85-1.84,2.43-.87,.56-1.98,.84-3.33,.84Zm20.48-.11c-2.66,0-4.72-.86-6.19-2.57-1.47-1.71-2.21-4.1-2.21-7.15s.73-5.44,2.18-7.15c1.47-1.71,3.54-2.57,6.19-2.57,1.57,0,2.92,.3,4.06,.89,1.14,.59,2.03,1.42,2.67,2.47,.66,1.06,1.05,2.28,1.18,3.67h-3.39c-.14-1.36-.62-2.44-1.42-3.24-.78-.8-1.82-1.2-3.1-1.2-1.6,0-2.82,.62-3.67,1.87-.83,1.25-1.25,3.01-1.25,5.28s.42,4.06,1.27,5.28c.86,1.22,2.07,1.82,3.62,1.82,1.34,0,2.41-.42,3.19-1.25,.78-.83,1.23-1.9,1.34-3.19h3.39c-.13,1.38-.52,2.6-1.18,3.67-.64,1.06-1.53,1.88-2.67,2.47-1.12,.59-2.46,.89-4.03,.89Zm14.37-.36h-3.36v-24.89h3.36v8.65h.75c.46-.93,1.08-1.65,1.87-2.15,.79-.5,1.78-.75,2.99-.75,2.14,0,3.69,.67,4.67,2.02,1,1.33,1.49,3.04,1.49,5.13v11.98h-3.36v-11.26c0-1.62-.29-2.85-.87-3.7-.58-.87-1.48-1.31-2.71-1.31-1.51,0-2.7,.6-3.55,1.8-.85,1.18-1.28,2.66-1.28,4.42v10.05Zm22.48,.47c-2.18,0-3.77-.67-4.76-2.02-.97-1.35-1.46-3.06-1.46-5.13v-11.98h3.36v11.26c0,1.62,.29,2.86,.87,3.73,.58,.85,1.48,1.28,2.71,1.28,1.54,0,2.72-.59,3.55-1.77,.85-1.2,1.27-2.69,1.27-4.45v-10.05h3.36v18.67h-2.99v-2.8h-.75c-.33,1.04-.94,1.85-1.84,2.43-.87,.56-1.98,.84-3.33,.84Z"/><path class="cls-2" d="M138.34,19.72c1.6-.78,3.16-2.26,3.16-5.11,0-5.37-4.48-6.02-6.66-6.02h-7.72v11.95h0v6.78h3.36v-6.78h4.59s.06,0,.09,0l3.43,6.78h3.61v-.14l-3.86-7.45Zm-7.85-1.7v-6.79h3.85c1.23,0,2.15,.27,2.75,.82,.58,.5,.88,1.3,.91,2.39,0,.06,.01,.11,.01,.17,0,0,0,0,0,0,0,0,0,0,0,0,0,1.17-.3,2.03-.9,2.57-.6,.55-1.53,.82-2.78,.82h-3.85Z"/></svg>